<svg id="facebook" xmlns="http://www.w3.org/2000/svg" width="19.98" height="19.979" viewBox="0 0 19.98 19.979">
  <path id="Caminho_368" data-name="Caminho 368" d="M727.826,1262.99v-13.245a7.559,7.559,0,0,1,.18-.771,3.671,3.671,0,0,1,2.569-2.469c.208-.061.422-.1.633-.143h13.214c.221.05.447.087.664.153a3.65,3.65,0,0,1,2.567,2.569c.063.206.1.419.151.629v13.277c-.051.215-.09.435-.155.646a3.669,3.669,0,0,1-2.536,2.548c-.215.068-.44.106-.661.158H731.177a.272.272,0,0,0-.071-.03,3.743,3.743,0,0,1-3.134-2.706C727.917,1263.4,727.875,1263.2,727.826,1262.99Zm16.149-10.466v-2.309c-.053,0-.1-.01-.146-.01-.707,0-1.415-.011-2.122,0a7.024,7.024,0,0,0-1.077.1,2.33,2.33,0,0,0-1.467.826,2.709,2.709,0,0,0-.565,1.564c-.04.63-.03,1.264-.041,1.9,0,.061,0,.122,0,.2h-1.211v.188q0,.91,0,1.819c0,.318,0,.318.32.318h.892v6.911h3.124v-6.911h.189c.51,0,1.021,0,1.532,0,.114,0,.157-.032.168-.149.043-.455.1-.909.146-1.363.029-.268.056-.536.086-.828h-2.1c0-.565-.011-1.107,0-1.648a.537.537,0,0,1,.5-.567,3.047,3.047,0,0,1,.507-.043C743.13,1252.521,743.544,1252.525,743.975,1252.525Z" transform="translate(-727.826 -1246.362)" fill="#ececec"/>
</svg>
