<svg id="Grupo_195" data-name="Grupo 195" xmlns="http://www.w3.org/2000/svg" width="19.872" height="19.863" viewBox="0 0 19.872 19.863">
  <path id="Caminho_365" data-name="Caminho 365" d="M592.081,1247h9.7c.063.012.125.027.188.034a4.895,4.895,0,0,1,1.567.413,5.351,5.351,0,0,1,3.316,5.06c.041,2.947.012,5.9.009,8.844a5.287,5.287,0,0,1-.973,3.132,5.4,5.4,0,0,1-4.613,2.375q-4.344.011-8.689,0a5.3,5.3,0,0,1-1.117-.1,5.389,5.389,0,0,1-4.3-4.084c-.081-.29-.11-.595-.163-.893v-9.7c.032-.2.054-.408.1-.609a5.412,5.412,0,0,1,4.092-4.31C591.48,1247.082,591.784,1247.053,592.081,1247Zm13.018,9.95q0-2.162,0-4.324a3.943,3.943,0,0,0-.2-1.334,3.711,3.711,0,0,0-3.62-2.529c-2.9-.005-5.791-.01-8.687.007a4.182,4.182,0,0,0-1.292.2,3.673,3.673,0,0,0-2.538,3.626c0,2.889-.009,5.778.008,8.667a4.215,4.215,0,0,0,.2,1.293,3.668,3.668,0,0,0,3.6,2.541q4.363.01,8.726,0a3.672,3.672,0,0,0,3.109-1.568,3.729,3.729,0,0,0,.694-2.276Q605.1,1259.1,605.1,1256.95Z" transform="translate(-587 -1247)" fill="#ececec"/>
  <path id="Caminho_366" data-name="Caminho 366" d="M613.924,1279.045a5.118,5.118,0,1,1,5.121-5.12A5.139,5.139,0,0,1,613.924,1279.045Zm3.355-5.111a3.352,3.352,0,1,0-3.36,3.345A3.356,3.356,0,0,0,617.279,1273.934Z" transform="translate(-603.997 -1263.997)" fill="#ececec"/>
  <path id="Caminho_367" data-name="Caminho 367" d="M651.606,1262.066a1.287,1.287,0,1,1-1.291,1.279A1.3,1.3,0,0,1,651.606,1262.066Z" transform="translate(-636.345 -1258.742)" fill="#ececec"/>
</svg>
