<svg xmlns="http://www.w3.org/2000/svg" width="28" height="42" viewBox="0 0 28 42">
  <g id="Scroll" transform="translate(-935 -822)">
    <g id="União_1" data-name="União 1" transform="translate(935 822)" fill="none">
      <path d="M.035,29H0V14a14,14,0,1,1,28,0V29h-.035A14,14,0,0,1,.035,29Z" stroke="none"/>
      <path d="M 14.00040054321289 40.00030136108398 C 17.0563907623291 40.00030136108398 19.96743965148926 38.85108184814453 22.19729042053223 36.76433181762695 C 24.41691017150879 34.68716049194336 25.75662994384766 31.87969017028809 25.96965980529785 28.85910034179688 L 25.99990081787109 28.43029403686523 L 25.99990081787109 14.00040054321289 C 25.99990081787109 10.79472064971924 24.75175094604492 7.781060695648193 22.48537063598633 5.514580726623535 C 20.21906089782715 3.248170614242554 17.2056999206543 2.000000715255737 14.00040054321289 2.000000715255737 C 10.79469013214111 2.000000715255737 7.781050205230713 3.248180627822876 5.514610290527344 5.514610767364502 C 3.248180389404297 7.781050682067871 2.000000476837158 10.79469108581543 2.000000476837158 14.00040054321289 L 2.000000476837158 27.99990081787109 L 2.000000476837158 28.43057632446289 L 2.030220508575439 28.85910034179688 C 2.243250370025635 31.87971115112305 3.58301043510437 34.68717193603516 5.802700519561768 36.76430130004883 C 8.032680511474609 38.85107040405273 10.94401073455811 40.00030136108398 14.00040054321289 40.00030136108398 M 14.00040054321289 42.00030136108398 C 6.603640556335449 42.00030136108398 0.5475804209709167 36.26535034179688 0.03518040850758553 28.99979972839355 L 4.089355343239731e-07 28.99979972839355 L 4.089355343239731e-07 27.99990081787109 L 4.089355343239731e-07 14.00040054321289 C 4.089355343239731e-07 6.267600536346436 6.267600536346436 6.805419729971618e-07 14.00040054321289 6.805419729971618e-07 C 21.7322998046875 6.805419729971618e-07 27.99990081787109 6.267600536346436 27.99990081787109 14.00040054321289 L 27.99990081787109 28.99979972839355 L 27.96470069885254 28.99979972839355 C 27.45231056213379 36.26535034179688 21.39630126953125 42.00030136108398 14.00040054321289 42.00030136108398 Z" stroke="none" fill="#ececec"/>
    </g>
    <circle id="Elipse_3" data-name="Elipse 3" cx="7" cy="7" r="7" transform="translate(942 829)" fill="#ececec"/>
  </g>
</svg>
