<svg id="Whatsapp" xmlns="http://www.w3.org/2000/svg" width="19.749" height="19.75" viewBox="0 0 19.749 19.75">
  <path id="Caminho_363" data-name="Caminho 363" d="M1019.94,1247.489h1.2c.056.012.111.025.168.034.612.106,1.239.161,1.835.325a9.623,9.623,0,1,1-7.1,17.776.433.433,0,0,0-.362-.039q-2.593.832-5.189,1.653v-.039c.026-.065.056-.129.078-.2.534-1.573,1.065-3.147,1.6-4.718a.448.448,0,0,0-.043-.412,9.316,9.316,0,0,1-1.25-4.028,9.044,9.044,0,0,1,.706-4.407,9.542,9.542,0,0,1,7.252-5.8C1019.2,1247.572,1019.572,1247.54,1019.94,1247.489Zm-7.011,17.361c.094-.027.148-.042.2-.059.9-.286,1.8-.568,2.7-.861a.481.481,0,0,1,.446.057,8.168,8.168,0,0,0,10.554-1.748,7.737,7.737,0,0,0,1.745-6.484,8.153,8.153,0,0,0-7.355-6.7,8.167,8.167,0,0,0-7.747,4.055,7.879,7.879,0,0,0-.8,6.063,7.6,7.6,0,0,0,1.182,2.534.305.305,0,0,1,.04.319c-.093.246-.171.5-.255.747Z" transform="translate(-1010.489 -1247.489)" fill="#ececec"/>
  <path id="Caminho_364" data-name="Caminho 364" d="M1036.368,1271.221c.441-.112.645.146.792.534.193.51.4,1.014.635,1.508a.676.676,0,0,1-.082.754,7.613,7.613,0,0,1-.491.593.366.366,0,0,0-.047.489,6.419,6.419,0,0,0,2.514,2.437c.227.119.462.224.7.326.277.121.382.1.572-.132.226-.271.445-.549.668-.823.18-.222.288-.264.551-.145.648.3,1.288.608,1.932.912a.322.322,0,0,1,.185.329c0,1.078-.539,1.688-1.719,2.033a2.409,2.409,0,0,1-1.421-.066,9.613,9.613,0,0,1-3.047-1.394,10.865,10.865,0,0,1-2.231-2.3,6.552,6.552,0,0,1-1.07-1.883,2.706,2.706,0,0,1,.65-2.882A.959.959,0,0,1,1036.368,1271.221Z" transform="translate(-1029.315 -1265.965)" fill="#ececec"/>
</svg>
