<svg xmlns="http://www.w3.org/2000/svg" width="71.232" height="11.55" viewBox="0 0 71.232 11.55">
  <g id="Grupo_31" data-name="Grupo 31" transform="translate(0 -4)">
    <g id="Grupo_30" data-name="Grupo 30" transform="translate(0 4)">
      <g id="Grupo_28" data-name="Grupo 28" transform="translate(15.641)">
        <path id="Caminho_167" data-name="Caminho 167" d="M81.244,885.289h3.7a4.166,4.166,0,0,1,2.97,1.154,3.2,3.2,0,0,1,1.1,2.576v.3a3.671,3.671,0,0,1-.718,2.16,2.582,2.582,0,0,1-1.358,1.049l2.639,4.11H86.789l-3.258-5.018v5.018h-2.28Zm5.419,3.8a1.532,1.532,0,0,0-.45-1.091,2.126,2.126,0,0,0-1.407-.45H83.524v3.132h.88v.007h.76A1.56,1.56,0,0,0,86.663,889.089Z" transform="translate(-81.244 -885.189)" fill="#ececec"/>
        <path id="Caminho_168" data-name="Caminho 168" d="M235.994,884.834v2.273h-4.56v2.287h3.42v2.273h-3.42v2.287h4.56v2.266h-6.84V884.834Z" transform="translate(-219.989 -884.762)" fill="#ececec"/>
        <path id="Caminho_169" data-name="Caminho 169" d="M349.9,892.888a1.323,1.323,0,0,0,1.325-1.153c0-1.036-1.39-1.18-2.175-1.452a3.512,3.512,0,0,1-2.6-3.152,3.461,3.461,0,0,1,6.888-.478l-2.264.478a1.151,1.151,0,0,0-2.3.007c0,1.022,1.294,1.294,2.082,1.528a3.374,3.374,0,0,1,2.694,3.083,3.6,3.6,0,0,1-3.627,3.458,3.646,3.646,0,0,1-3.6-2.976l2.264-.482a1.313,1.313,0,0,0,1.328,1.149Z" transform="translate(-329.892 -883.677)" fill="#ececec"/>
        <path id="Caminho_170" data-name="Caminho 170" d="M483.367,892.151v-6.861h2.294v6.869a4.588,4.588,0,0,1-9.177,0v-6.869h2.294v6.861a2.294,2.294,0,0,0,4.588,0Z" transform="translate(-451.993 -885.189)" fill="#ececec"/>
        <path id="Caminho_171" data-name="Caminho 171" d="M647.227,885.289v9.078h4.56v2.266h-6.84V885.289Z" transform="translate(-610.017 -885.189)" fill="#ececec"/>
        <path id="Caminho_172" data-name="Caminho 172" d="M735.883,885.289v2.259H733.1v9.085h-2.287v-9.085h-2.794v-2.259Z" transform="translate(-687.938 -885.189)" fill="#ececec"/>
        <path id="Caminho_173" data-name="Caminho 173" d="M865.342,892.888a1.323,1.323,0,0,0,1.325-1.153c0-1.036-1.39-1.18-2.175-1.452a3.512,3.512,0,0,1-2.6-3.152,3.461,3.461,0,0,1,6.888-.478l-2.264.478a1.151,1.151,0,0,0-2.3.007c0,1.022,1.294,1.294,2.082,1.528a3.374,3.374,0,0,1,2.694,3.083,3.6,3.6,0,0,1-3.627,3.458,3.646,3.646,0,0,1-3.6-2.976l2.264-.482a1.313,1.313,0,0,0,1.328,1.149Z" transform="translate(-813.395 -883.677)" fill="#ececec"/>
      </g>
      <g id="Grupo_29" data-name="Grupo 29" transform="translate(0 0.052)">
        <path id="Caminho_174" data-name="Caminho 174" d="M-163.306,889.791a4.075,4.075,0,0,0-.876-.579,3.631,3.631,0,0,0,.473-1.576,2.989,2.989,0,0,0-.9-2.169,3.071,3.071,0,0,0-2.261-.947h-4.3v8.012h2.213v-5.786h2.09a.98.98,0,0,1,.961.982,1.074,1.074,0,0,1-1,1.046q-.551.042-.855.057v2.084c.685,0,1.272-.03,1.95.007a1.422,1.422,0,0,1,1.321,1.4,1.383,1.383,0,0,1-1.382,1.356h-1.889v2.233h1.95a3.392,3.392,0,0,0,2.515-1.06,3.458,3.458,0,0,0,1.039-2.529A3.473,3.473,0,0,0-163.306,889.791Z" transform="translate(171.177 -884.52)" fill="#ececec"/>
        <path id="Caminho_175" data-name="Caminho 175" d="M-8.408,884.52h2.727l-1.154,4.4h1.959l-2.851,6.99.378-4.991h-1.7Z" transform="translate(19.098 -884.52)" fill="#ececec"/>
      </g>
    </g>
  </g>
</svg>
