<svg xmlns="http://www.w3.org/2000/svg" width="125.813" height="33.294" viewBox="0 0 125.813 33.294">
  <g id="Grupo_229" data-name="Grupo 229" transform="translate(-1466.659 -425.164)">
    <g id="Grupo_2" data-name="Grupo 2" transform="translate(1466.659 425.164)">
      <path id="Caminho_7" data-name="Caminho 7" d="M1486.3,454.935a1.9,1.9,0,0,0-1.479-1.36,3.334,3.334,0,0,0-2.493.615,1.79,1.79,0,0,0-.673,1.98c.1.345.233.684.344,1.027a49.648,49.648,0,0,1,1.956,8.208,37.523,37.523,0,0,0-12.131.528,55.41,55.41,0,0,1,.711-6.415q.187-1.11.417-2.212a11.285,11.285,0,0,0,.253-1.2,1.735,1.735,0,0,0-1.936-1.735,2.954,2.954,0,0,0-2.628,1.345,9.089,9.089,0,0,0-.5,1.844q-.237,1.008-.44,2.024a49.31,49.31,0,0,0-1.033,10.73,28.793,28.793,0,0,0,.712,5.95,20.15,20.15,0,0,0,.861,2.772c.339.857.629,1.563,1.544,1.91a3.423,3.423,0,0,0,3.163-.479,2.36,2.36,0,0,0,.95-1.278c.131-.585-.241-1.059-.469-1.569a21.143,21.143,0,0,1-1.6-7.366c.393-.146.756-.266,1.127-.377a24.955,24.955,0,0,1,2.957-.7,25.794,25.794,0,0,1,8.326-.058,58.276,58.276,0,0,1-.8,9.551c-.156.99-.692,2.335.243,3.087a3.8,3.8,0,0,0,3.81.126,2.691,2.691,0,0,0,1.281-1.046,2.627,2.627,0,0,0,.224-1.055c.11-1.073.193-2.148.258-3.224a61.467,61.467,0,0,0-.083-10.145A46.106,46.106,0,0,0,1486.3,454.935Z" transform="translate(-1466.659 -449.043)" fill="#ececec"/>
      <path id="Caminho_8" data-name="Caminho 8" d="M1722.448,477.171a8.264,8.264,0,0,0-.645-2.4,17.934,17.934,0,0,0-4.463-5.9,13.974,13.974,0,0,0-6.29-3.187c-1.937-.341-5.118.205-5.578,2.514a12.262,12.262,0,0,0,.087,3.461,24.389,24.389,0,0,1,.076,2.871,12.075,12.075,0,0,1-1.221,5.594c-.174.3-.338.818-.642.842h-.025a1.839,1.839,0,0,1-.252-.154c-1.584-.858-2.128-3.8-2.587-4.709-.367-.726-2.39-.71-3.232-.066-.45.344-.427.791-.529,1.316a3.948,3.948,0,0,1-.952,1.948c-1.939,1.727-4.65,1.026-6.213-.148a6.156,6.156,0,0,1-2.422-5.126,5.578,5.578,0,0,1,2.974-5.072,4.027,4.027,0,0,1,4.705.763,8.507,8.507,0,0,1,1.622,3.083c.305.882.662,1.288,1.523,1.292,1.028,0,1.8-.135,2.214-1.166.391-.97-.456-3.09-.928-3.935-2.164-3.872-6.71-4.445-10.521-2.776a10.149,10.149,0,0,0-4.769,4.325,10.3,10.3,0,0,0-1.159,3.25,10.567,10.567,0,0,0-.159,2.151c.022.713.2,1.411.177,2.122a4.08,4.08,0,0,1-.309,1.52c-.14.318-.351.734-.558.723a2.432,2.432,0,0,1-.292-.023,2.463,2.463,0,0,1-1.044-.5c-1.553-1.2-2.116-3.488-2.508-5.308-.224-1.042-.767-5.61-.852-6.493a53.435,53.435,0,0,0,11.655-6.453c.478-.354,1.122-.818,1.592-1.21.439-.366.229-.964-.014-1.446-.386-.765-1.206-.655-1.919-.346a18.606,18.606,0,0,0-2.728,1.62q-1.514.99-3.1,1.855a49.43,49.43,0,0,1-6,2.744,18.759,18.759,0,0,0-1-3.347,19.868,19.868,0,0,0-1.456-3.3,1.612,1.612,0,0,0-1.479-.877,3.023,3.023,0,0,0-2.213,1.031c-.692.966.224,2.215.6,3.137a22.32,22.32,0,0,1,1.465,4.717,58.559,58.559,0,0,1-7.65,1.748,13.628,13.628,0,0,0-.809-3.213,24.956,24.956,0,0,0-1.334-3.086,1.628,1.628,0,0,0-1.439-.95,2.626,2.626,0,0,0-2.161.955c-.584.886.27,2.045.612,2.886a19.5,19.5,0,0,1,1.249,3.836c-1.055.076-2.076.058-3.134.066a14.486,14.486,0,0,0-2.392-.232,2.28,2.28,0,0,0-1.564,3.438c.571,1,1.9.806,2.88.8,1.464-.013,2.923-.117,4.379-.265.008,5.283-2.6,7.807-4.038,8.112-.779.165-6.094,1.27-5.123-9.962a4.479,4.479,0,0,0-.581-3.047c-.654-.929-1.732-.921-2.862-.716a5.339,5.339,0,0,0-.612.062c-1.352.213-2.568.376-3.714.5a4.977,4.977,0,0,0-.607.09c-1.859.346-2.788,1.321-3.828,3.044a1.349,1.349,0,0,1-.406.445,7.939,7.939,0,0,0-7.58-5.192,11.53,11.53,0,0,0-9.175,4.76,10.14,10.14,0,0,0-1.3,9.93,7.688,7.688,0,0,0,3.253,3.561,9.062,9.062,0,0,0,6.36.759,11.651,11.651,0,0,0,8.861-9.282,11.7,11.7,0,0,0,2.936-3.125,4.528,4.528,0,0,1,1.958-1.743c.641-.215,3.612-.6,3.4.223l0,0c-1.2,10.554,3.726,14.034,7.548,14.188a7.611,7.611,0,0,0,4.641-1.52,9.431,9.431,0,0,0,2.13-2.212,8.233,8.233,0,0,0,1.773,2.4,5.453,5.453,0,0,0,4.087,1.322,8.816,8.816,0,0,0,6.783-4.339,7.162,7.162,0,0,0,3.855,4.043,7.32,7.32,0,0,0,6.948-1.515,8.49,8.49,0,0,0,6.785,1.455,10.674,10.674,0,0,0,3.688-1.44,9.344,9.344,0,0,0,1.52-1.2c.1-.1.2-.215.3-.322l.017.033a10.576,10.576,0,0,0,.584.932,7.507,7.507,0,0,0,1.7,1.684,4.272,4.272,0,0,0,4.356.02,7.26,7.26,0,0,0,3.839-4.869,19.638,19.638,0,0,0,.56-6.231c-.037-.791-.109-1.579-.207-2.364a7.58,7.58,0,0,1-.066-.913,1.816,1.816,0,0,1,.026-.5l.175.056c.183.073.361.159.537.249a20.182,20.182,0,0,1,5.531,3.948c1.277,1.416,3.479,3.384,3.244,5.4a2.265,2.265,0,0,1-2.273,2.235c-.988.111-1.616-.588-2.306-1.1a2.494,2.494,0,0,0-3.252.144,2.008,2.008,0,0,0-.488,2.94,5.59,5.59,0,0,0,3.016,1.408,8.176,8.176,0,0,0,4.5-.6,7.419,7.419,0,0,0,3.324-2.582A6.062,6.062,0,0,0,1722.448,477.171Zm-89.714,3.677a4.982,4.982,0,0,1-5.179-3.057,7.87,7.87,0,0,1,.668-6.954,5.184,5.184,0,0,1,2.4-1.945,3.6,3.6,0,0,1,2.765.4,4.974,4.974,0,0,1,.468.305,4.86,4.86,0,0,0-.057,4.155,3.911,3.911,0,0,0,2.367,2.11c-.011.087-.02.175-.035.261C1635.8,477.942,1634.783,480.431,1632.734,480.847Zm39.033-2.212c-.574.742-1.482,1.783-2.523,1.71a3.206,3.206,0,0,1-2.232-1.494,9.83,9.83,0,0,1-1.318-3.012c-.1-.369-.034-3.75-.017-4.294a59.759,59.759,0,0,0,7.8-1.92C1673.595,472.477,1673.495,476.283,1671.767,478.635Z" transform="translate(-1596.675 -452.153)" fill="#ececec"/>
      <path id="Caminho_9" data-name="Caminho 9" d="M1979.961,432.794a7.338,7.338,0,0,1,5.72-7.6.76.76,0,0,1,.926.748c.256,2.855-1.031,8.113-5.993,7.57A.734.734,0,0,1,1979.961,432.794Z" transform="translate(-1898.747 -425.164)" fill="#ececec"/>
    </g>
  </g>
</svg>
