<svg id="Logo_Coudelaria_SL" data-name="Logo Coudelaria SL" xmlns="http://www.w3.org/2000/svg" width="33.888" height="46.843" viewBox="0 0 33.888 46.843">
  <g id="Grupo_25" data-name="Grupo 25" transform="translate(4.797)">
    <path id="Caminho_142" data-name="Caminho 142" d="M265.637,513.021h0Z" transform="translate(-252.418 -480.169)" fill="#ececec"/>
    <path id="Caminho_143" data-name="Caminho 143" d="M191.25,274.565l-.989,3.869h-8.072V272.61h-2.05v5.825H172l-.989-3.869H168.9l1.513,5.919h21.439l1.383-5.919Z" transform="translate(-168.9 -272.61)" fill="#ececec"/>
    <path id="Caminho_144" data-name="Caminho 144" d="M206.462,384.545a2.968,2.968,0,0,1-.754-2.295h-2.05a4.878,4.878,0,0,0,1.441,3.825,4.146,4.146,0,0,0,2.741,1c.135,0,.239-.007.3-.012a4.045,4.045,0,0,0,3.845-4.326c0-2.99-2.13-3.867-3.839-4.179a2.225,2.225,0,0,1-1.93-2.153c.013-1.527.965-1.722,1.379-1.734a1.64,1.64,0,0,1,1.3.449,3.036,3.036,0,0,1,.391,1.868l.415,0,1.6.015a4.311,4.311,0,0,0-.851-3.216,3.6,3.6,0,0,0-2.859-1.163h-.007a3.5,3.5,0,0,0-3.416,3.766,4.24,4.24,0,0,0,3.681,4.2l.063.008a3.012,3.012,0,0,1,1.056.363,1.872,1.872,0,0,1,.967,1.779,2.1,2.1,0,0,1-.879,1.954,2.307,2.307,0,0,1-1,.324h0l-.1.007A2.191,2.191,0,0,1,206.462,384.545Z" transform="translate(-198.908 -358.956)" fill="#ececec"/>
    <path id="Caminho_145" data-name="Caminho 145" d="M272.454,388.573a4.361,4.361,0,0,0,2.814-.957,4.788,4.788,0,0,0,1.513-3.867h-2.05a2.9,2.9,0,0,1-.772,2.29,2.075,2.075,0,0,1-1.016.442V374.312h-2.05v14.059l.848.148A4.317,4.317,0,0,0,272.454,388.573Z" transform="translate(-256.956 -360.415)" fill="#ececec"/>
    <g id="Grupo_24" data-name="Grupo 24" transform="translate(1.579 9.736)">
      <g id="Grupo_22" data-name="Grupo 22" transform="translate(8.657 23.632)">
        <path id="Caminho_146" data-name="Caminho 146" d="M243.809,516.8h0Z" transform="translate(-243.809 -516.796)" fill="#ececec"/>
      </g>
      <g id="Grupo_23" data-name="Grupo 23">
        <path id="Caminho_147" data-name="Caminho 147" d="M191.059,368.006l-.75-.653c-1.35-1.332-3.33-1.281-5.245-1.231-.352.009-.716.019-1.065.019-2.55,0-3.43-2.346-3.539-3.587l0-.09V343.855h21.178l0,18.7c-.109,1.241-.989,3.587-3.539,3.587-.347,0-.708-.009-1.057-.018-1.919-.049-3.9-.1-5.255,1.231l-.047.044Zm-4.913-3.953a8.149,8.149,0,0,1,4.9,1.247c1.869-1.334,4.157-1.275,6.041-1.227.352.009.684.018,1,.018,1.217,0,1.456-1.385,1.493-1.683V345.9H182.5v16.5c.035.283.27,1.682,1.493,1.682.323,0,.658-.009,1.012-.018S185.756,364.053,186.146,364.053Z" transform="translate(-180.455 -343.855)" fill="#ececec"/>
      </g>
    </g>
  </g>
  <g id="Grupo_26" data-name="Grupo 26" transform="translate(0 35.645)">
    <path id="Caminho_148" data-name="Caminho 148" d="M136.146,539.364a2.583,2.583,0,0,1-1.2-.273,2.039,2.039,0,0,1-.844-.806,2.536,2.536,0,0,1-.311-1.3,2.592,2.592,0,0,1,.188-1.018,2.12,2.12,0,0,1,.519-.748,2.218,2.218,0,0,1,.762-.458,2.7,2.7,0,0,1,.916-.154,2.7,2.7,0,0,1,1.332.335l.027.895h-.184l-.287-.54a1.82,1.82,0,0,0-.147-.246.441.441,0,0,0-.2-.157.924.924,0,0,0-.4-.082,1.368,1.368,0,0,0-.734.205,1.4,1.4,0,0,0-.53.68,3.44,3.44,0,0,0-.2,1.295,3.616,3.616,0,0,0,.188,1.291,1.348,1.348,0,0,0,.509.68,1.467,1.467,0,0,0,1.025.174,1.542,1.542,0,0,0,.232-.075.462.462,0,0,0,.212-.161,1.163,1.163,0,0,0,.13-.242l.259-.622h.185l-.027.984a2.633,2.633,0,0,1-.649.253A3.191,3.191,0,0,1,136.146,539.364Z" transform="translate(-133.796 -534.452)" fill="#ececec"/>
    <path id="Caminho_149" data-name="Caminho 149" d="M167.077,547.288a1.786,1.786,0,0,1-.885-.212,1.464,1.464,0,0,1-.588-.6,1.943,1.943,0,0,1-.208-.929,1.845,1.845,0,0,1,.222-.929,1.533,1.533,0,0,1,.6-.6,1.869,1.869,0,0,1,1.715,0,1.54,1.54,0,0,1,.6.594,1.842,1.842,0,0,1,.222.933,1.967,1.967,0,0,1-.208.933,1.444,1.444,0,0,1-.584.6A1.8,1.8,0,0,1,167.077,547.288Zm0-.191a.589.589,0,0,0,.4-.133.826.826,0,0,0,.222-.468,4.95,4.95,0,0,0,.068-.936,5.055,5.055,0,0,0-.068-.946.83.83,0,0,0-.222-.472.589.589,0,0,0-.4-.133.576.576,0,0,0-.4.133.859.859,0,0,0-.222.472,4.814,4.814,0,0,0-.072.946,4.715,4.715,0,0,0,.072.936.856.856,0,0,0,.222.468A.576.576,0,0,0,167.077,547.1Z" transform="translate(-161.078 -542.396)" fill="#ececec"/>
    <path id="Caminho_150" data-name="Caminho 150" d="M194.476,547.546a1.161,1.161,0,0,1-.485-.1.737.737,0,0,1-.345-.328,1.2,1.2,0,0,1-.12-.6l.021-1.715a.391.391,0,0,0-.048-.219.272.272,0,0,0-.171-.1l-.082-.027v-.123l1.168-.226.075.075-.034.964V546.7a.417.417,0,0,0,.126.338.477.477,0,0,0,.318.106,1.053,1.053,0,0,0,.359-.058,1.5,1.5,0,0,0,.331-.174l.02-2.1a.4.4,0,0,0-.044-.219.3.3,0,0,0-.168-.1l-.075-.02v-.123l1.141-.239.075.075-.021.964v1.79a.575.575,0,0,0,.038.229.249.249,0,0,0,.167.126l.089.027v.13l-1.155.068-.061-.431a2.286,2.286,0,0,1-.506.328A1.418,1.418,0,0,1,194.476,547.546Z" transform="translate(-185.122 -542.654)" fill="#ececec"/>
    <path id="Caminho_151" data-name="Caminho 151" d="M224,538.352a1.45,1.45,0,0,1-.724-.181,1.223,1.223,0,0,1-.5-.56,2.246,2.246,0,0,1-.181-.967,2.105,2.105,0,0,1,.2-.98,1.421,1.421,0,0,1,.547-.591,1.47,1.47,0,0,1,.752-.2,1.893,1.893,0,0,1,.471.058,1.26,1.26,0,0,1,.4.174v-.888a.378.378,0,0,0-.044-.208.3.3,0,0,0-.181-.1l-.137-.027v-.13l1.189-.294.089.061-.027.964v3.286a.434.434,0,0,0,.048.215.264.264,0,0,0,.171.12l.075.02v.13l-1.134.075-.061-.287a1.446,1.446,0,0,1-.424.225A1.609,1.609,0,0,1,224,538.352Zm.376-.314a.917.917,0,0,0,.553-.191V535.3a1.016,1.016,0,0,0-.547-.157.688.688,0,0,0-.574.352,2.061,2.061,0,0,0-.239,1.131,1.956,1.956,0,0,0,.225,1.093A.686.686,0,0,0,224.38,538.038Z" transform="translate(-210.463 -533.46)" fill="#ececec"/>
    <path id="Caminho_152" data-name="Caminho 152" d="M253.977,543.81a1.452,1.452,0,0,1,.738.177,1.226,1.226,0,0,1,.475.489,1.483,1.483,0,0,1,.167.714q0,.089-.007.168a.738.738,0,0,1-.027.147h-2.057a1.606,1.606,0,0,0,.263,1.011.918.918,0,0,0,.748.307,1.175,1.175,0,0,0,.553-.113,1.368,1.368,0,0,0,.389-.318l.109.1a1.494,1.494,0,0,1-.557.584,1.612,1.612,0,0,1-.837.209,1.73,1.73,0,0,1-.854-.2,1.444,1.444,0,0,1-.577-.591,1.923,1.923,0,0,1-.208-.926,1.762,1.762,0,0,1,.243-.95,1.663,1.663,0,0,1,.629-.6A1.68,1.68,0,0,1,253.977,543.81Zm-.034.2a.549.549,0,0,0-.345.113.762.762,0,0,0-.232.4,3.192,3.192,0,0,0-.1.8h1.223a2.166,2.166,0,0,0-.055-1A.486.486,0,0,0,253.943,544.008Z" transform="translate(-236.103 -542.396)" fill="#ececec"/>
    <path id="Caminho_153" data-name="Caminho 153" d="M277.846,538.256v-.13l.1-.027a.322.322,0,0,0,.225-.342q0-.232,0-.468t0-.468v-2.6a.391.391,0,0,0-.048-.215.3.3,0,0,0-.184-.106l-.1-.027v-.13l1.2-.287.089.061-.027.964v3.273a.472.472,0,0,0,.058.222.281.281,0,0,0,.181.12l.1.027v.13Z" transform="translate(-258.162 -533.46)" fill="#ececec"/>
    <path id="Caminho_154" data-name="Caminho 154" d="M293.874,547.288a1,1,0,0,1-.659-.222.78.78,0,0,1-.27-.639.8.8,0,0,1,.318-.6,2.131,2.131,0,0,1,1-.406q.116-.027.27-.051t.3-.051v-.485a1.258,1.258,0,0,0-.116-.642.409.409,0,0,0-.369-.178h-.02a.325.325,0,0,0-.249.1.573.573,0,0,0-.12.325l-.021.089a.626.626,0,0,1-.143.4.411.411,0,0,1-.307.126.4.4,0,0,1-.284-.106.362.362,0,0,1-.113-.277.641.641,0,0,1,.191-.472,1.191,1.191,0,0,1,.509-.287,2.369,2.369,0,0,1,.687-.1,1.329,1.329,0,0,1,.929.294,1.243,1.243,0,0,1,.321.956v1.523q0,.294.28.294h.157l.068.075a.941.941,0,0,1-.273.243.833.833,0,0,1-.41.085.727.727,0,0,1-.468-.14.656.656,0,0,1-.229-.372,2.625,2.625,0,0,1-.43.376A.97.97,0,0,1,293.874,547.288Zm.4-.437a.574.574,0,0,0,.26-.062,1.948,1.948,0,0,0,.307-.205v-1.093q-.178.027-.362.068a.949.949,0,0,0-.475.253.68.68,0,0,0-.181.5.572.572,0,0,0,.126.407A.428.428,0,0,0,294.271,546.85Z" transform="translate(-271.198 -542.396)" fill="#ececec"/>
    <path id="Caminho_155" data-name="Caminho 155" d="M319.3,547.192v-.13l.1-.034a.293.293,0,0,0,.188-.116.409.409,0,0,0,.051-.219v-2a.489.489,0,0,0-.055-.229.263.263,0,0,0-.185-.106l-.1-.027v-.123l1.114-.4.082.075.061.6v.048a1.618,1.618,0,0,1,.26-.355,1.444,1.444,0,0,1,.342-.266.753.753,0,0,1,.369-.1.514.514,0,0,1,.389.137.486.486,0,0,1,.13.348.455.455,0,0,1-.13.352.447.447,0,0,1-.314.12.589.589,0,0,1-.471-.246l-.014-.014a.237.237,0,0,0-.154-.092.2.2,0,0,0-.167.085.917.917,0,0,0-.126.161,1.248,1.248,0,0,0-.106.215v1.79a.391.391,0,0,0,.055.215.3.3,0,0,0,.184.12l.2.061v.13Z" transform="translate(-293.948 -542.396)" fill="#ececec"/>
    <path id="Caminho_156" data-name="Caminho 156" d="M342.346,538.428v-.13l.1-.027a.3.3,0,0,0,.184-.123.483.483,0,0,0,.055-.219v-1.65q0-.181-.007-.372a.391.391,0,0,0-.051-.215.277.277,0,0,0-.188-.106l-.1-.021v-.123l1.2-.4.082.075-.021.97v1.845a.408.408,0,0,0,.051.219.314.314,0,0,0,.181.123l.075.02v.13Zm.786-3.758a.547.547,0,0,1-.383-.143.5.5,0,0,1,0-.728.592.592,0,0,1,.765,0,.5.5,0,0,1,0,.728A.547.547,0,0,1,343.132,534.67Z" transform="translate(-313.848 -533.632)" fill="#ececec"/>
    <path id="Caminho_157" data-name="Caminho 157" d="M358.624,547.288a1,1,0,0,1-.659-.222.78.78,0,0,1-.27-.639.8.8,0,0,1,.318-.6,2.131,2.131,0,0,1,1-.406q.116-.027.27-.051t.3-.051v-.485a1.258,1.258,0,0,0-.116-.642.409.409,0,0,0-.369-.178h-.02a.324.324,0,0,0-.249.1.572.572,0,0,0-.12.325l-.021.089a.627.627,0,0,1-.143.4.411.411,0,0,1-.307.126.4.4,0,0,1-.284-.106.362.362,0,0,1-.113-.277.641.641,0,0,1,.191-.472,1.191,1.191,0,0,1,.509-.287,2.37,2.37,0,0,1,.687-.1,1.33,1.33,0,0,1,.929.294,1.243,1.243,0,0,1,.321.956v1.523q0,.294.28.294h.157l.068.075a.938.938,0,0,1-.273.243.832.832,0,0,1-.41.085.726.726,0,0,1-.468-.14.656.656,0,0,1-.229-.372,2.623,2.623,0,0,1-.43.376A.97.97,0,0,1,358.624,547.288Zm.4-.437a.573.573,0,0,0,.259-.062,1.936,1.936,0,0,0,.307-.205v-1.093q-.178.027-.362.068a.949.949,0,0,0-.475.253.68.68,0,0,0-.181.5.572.572,0,0,0,.127.407A.428.428,0,0,0,359.021,546.85Z" transform="translate(-327.1 -542.396)" fill="#ececec"/>
    <path id="Caminho_158" data-name="Caminho 158" d="M135.653,585.364a3.26,3.26,0,0,1-.762-.092,2.409,2.409,0,0,1-.646-.242l.041-.95h.2l.212.471a1.77,1.77,0,0,0,.2.328.644.644,0,0,0,.273.2.993.993,0,0,0,.222.065,1.471,1.471,0,0,0,.236.017.958.958,0,0,0,.659-.215.817.817,0,0,0,.075-1.076,1.68,1.68,0,0,0-.536-.355l-.28-.123a2.906,2.906,0,0,1-.905-.588,1.207,1.207,0,0,1-.331-.888,1.169,1.169,0,0,1,.209-.7,1.332,1.332,0,0,1,.577-.447,2.183,2.183,0,0,1,.861-.157,2.348,2.348,0,0,1,.68.1,1.989,1.989,0,0,1,.557.26l-.048.847h-.2l-.253-.512a1.237,1.237,0,0,0-.208-.325.457.457,0,0,0-.242-.126q-.082-.014-.14-.02a1.378,1.378,0,0,0-.154-.007.893.893,0,0,0-.577.195.65.65,0,0,0-.243.536.766.766,0,0,0,.184.533,1.582,1.582,0,0,0,.533.362l.307.13a2.7,2.7,0,0,1,.95.611,1.3,1.3,0,0,1-.167,1.8A1.969,1.969,0,0,1,135.653,585.364Z" transform="translate(-134.185 -574.166)" fill="#ececec"/>
    <path id="Caminho_159" data-name="Caminho 159" d="M161.627,593.288a1.786,1.786,0,0,1-.885-.212,1.465,1.465,0,0,1-.588-.6,1.943,1.943,0,0,1-.208-.929,1.845,1.845,0,0,1,.222-.929,1.532,1.532,0,0,1,.6-.6,1.868,1.868,0,0,1,1.715,0,1.539,1.539,0,0,1,.6.594,1.842,1.842,0,0,1,.222.933,1.965,1.965,0,0,1-.208.933,1.444,1.444,0,0,1-.584.6A1.8,1.8,0,0,1,161.627,593.288Zm0-.191a.589.589,0,0,0,.4-.133.826.826,0,0,0,.222-.468,4.95,4.95,0,0,0,.068-.936,5.055,5.055,0,0,0-.068-.946.83.83,0,0,0-.222-.472.589.589,0,0,0-.4-.133.576.576,0,0,0-.4.133.86.86,0,0,0-.222.472,4.816,4.816,0,0,0-.072.946,4.716,4.716,0,0,0,.072.936.856.856,0,0,0,.222.468A.576.576,0,0,0,161.627,593.1Z" transform="translate(-156.373 -582.11)" fill="#ececec"/>
    <path id="Caminho_160" data-name="Caminho 160" d="M187.776,593.546a1.16,1.16,0,0,1-.485-.1.736.736,0,0,1-.345-.328,1.2,1.2,0,0,1-.12-.6l.02-1.715a.389.389,0,0,0-.048-.218.271.271,0,0,0-.171-.1l-.082-.027v-.123l1.168-.226.075.075-.034.964V592.7a.417.417,0,0,0,.126.338.477.477,0,0,0,.318.106,1.05,1.05,0,0,0,.359-.058,1.5,1.5,0,0,0,.331-.174l.021-2.1a.393.393,0,0,0-.044-.219.3.3,0,0,0-.167-.1l-.075-.02v-.123l1.141-.239.075.075-.021.964v1.79a.577.577,0,0,0,.038.229.25.25,0,0,0,.167.126l.089.027v.13l-1.155.068-.061-.431a2.288,2.288,0,0,1-.506.328A1.418,1.418,0,0,1,187.776,593.546Z" transform="translate(-179.338 -582.368)" fill="#ececec"/>
    <path id="Caminho_161" data-name="Caminho 161" d="M214.847,593.84v-.15l1.858-2.952h-.95a.372.372,0,0,0-.27.1.981.981,0,0,0-.181.253l-.232.451-.178-.014.048-.963h2.706v.137l-1.818,2.958h.991a.414.414,0,0,0,.3-.1.979.979,0,0,0,.181-.27l.239-.5h.178l-.061,1.052Z" transform="translate(-203.772 -582.758)" fill="#ececec"/>
    <path id="Caminho_162" data-name="Caminho 162" d="M239.325,593.288a1,1,0,0,1-.659-.222.78.78,0,0,1-.27-.639.8.8,0,0,1,.318-.6,2.132,2.132,0,0,1,1-.406q.116-.027.27-.051t.3-.051v-.485a1.259,1.259,0,0,0-.116-.642.409.409,0,0,0-.369-.178h-.02a.325.325,0,0,0-.249.1.575.575,0,0,0-.12.325l-.021.089a.626.626,0,0,1-.143.4.411.411,0,0,1-.307.126.4.4,0,0,1-.284-.106.363.363,0,0,1-.113-.277.641.641,0,0,1,.191-.472,1.19,1.19,0,0,1,.509-.287,2.371,2.371,0,0,1,.687-.1,1.329,1.329,0,0,1,.929.294,1.243,1.243,0,0,1,.321.956v1.523q0,.294.28.294h.157l.068.075a.937.937,0,0,1-.273.243.833.833,0,0,1-.41.085.727.727,0,0,1-.468-.14.654.654,0,0,1-.229-.372,2.633,2.633,0,0,1-.43.376A.971.971,0,0,1,239.325,593.288Zm.4-.437a.574.574,0,0,0,.26-.062,1.958,1.958,0,0,0,.307-.205v-1.093q-.178.027-.362.068a.949.949,0,0,0-.475.253.681.681,0,0,0-.181.5.572.572,0,0,0,.126.407A.428.428,0,0,0,239.721,592.85Z" transform="translate(-224.103 -582.11)" fill="#ececec"/>
    <path id="Caminho_163" data-name="Caminho 163" d="M274.745,586.026v-.143l.137-.041a.3.3,0,0,0,.184-.127.488.488,0,0,0,.041-.222v-3.457a.47.47,0,0,0-.041-.215.3.3,0,0,0-.178-.126l-.143-.041v-.143h1.694v.143l-.13.041a.308.308,0,0,0-.174.13.477.477,0,0,0-.044.225v3.771h1a.474.474,0,0,0,.348-.116,1.18,1.18,0,0,0,.219-.335l.253-.567h.191l-.068,1.223Z" transform="translate(-255.485 -574.944)" fill="#ececec"/>
    <path id="Caminho_164" data-name="Caminho 164" d="M303.526,589.81a1.452,1.452,0,0,1,.738.178,1.227,1.227,0,0,1,.475.489,1.483,1.483,0,0,1,.167.714q0,.089-.007.167a.713.713,0,0,1-.027.147h-2.057a1.607,1.607,0,0,0,.263,1.011.918.918,0,0,0,.748.307,1.175,1.175,0,0,0,.553-.113,1.368,1.368,0,0,0,.389-.318l.109.1a1.5,1.5,0,0,1-.557.584,1.613,1.613,0,0,1-.837.208,1.729,1.729,0,0,1-.854-.2,1.444,1.444,0,0,1-.577-.591,1.924,1.924,0,0,1-.208-.926,1.763,1.763,0,0,1,.242-.95,1.694,1.694,0,0,1,1.438-.806Zm-.034.2a.55.55,0,0,0-.345.113.762.762,0,0,0-.232.4,3.183,3.183,0,0,0-.1.8h1.223a2.168,2.168,0,0,0-.055-1A.486.486,0,0,0,303.492,590.008Z" transform="translate(-278.882 -582.11)" fill="#ececec"/>
    <path id="Caminho_165" data-name="Caminho 165" d="M327.923,583.489a1,1,0,0,1-.659-.222.779.779,0,0,1-.27-.639.8.8,0,0,1,.318-.6,2.133,2.133,0,0,1,1-.406q.116-.027.27-.051t.3-.051v-.485a1.257,1.257,0,0,0-.116-.642.408.408,0,0,0-.369-.178h-.02a.325.325,0,0,0-.25.1.575.575,0,0,0-.12.325l-.02.089a.626.626,0,0,1-.143.4.411.411,0,0,1-.307.126.4.4,0,0,1-.284-.106.362.362,0,0,1-.113-.277.641.641,0,0,1,.191-.472,1.191,1.191,0,0,1,.509-.287,2.368,2.368,0,0,1,.687-.1,1.33,1.33,0,0,1,.929.294,1.243,1.243,0,0,1,.321.957v1.523q0,.294.28.294h.157l.068.075a.943.943,0,0,1-.273.243.835.835,0,0,1-.41.085.727.727,0,0,1-.468-.14.655.655,0,0,1-.229-.372,2.625,2.625,0,0,1-.43.376A.971.971,0,0,1,327.923,583.489Zm-.56-4.1a1.447,1.447,0,0,1,.236-.683.551.551,0,0,1,.461-.246.6.6,0,0,1,.29.061,1.21,1.21,0,0,1,.208.144l.219.191a.355.355,0,0,0,.239.1.4.4,0,0,0,.3-.126.915.915,0,0,0,.2-.338l.143.055a1.471,1.471,0,0,1-.232.683.536.536,0,0,1-.451.246.67.67,0,0,1-.3-.062,1.029,1.029,0,0,1-.222-.144q-.1-.1-.208-.188a.359.359,0,0,0-.242-.092.411.411,0,0,0-.3.123.858.858,0,0,0-.2.335Zm.957,3.662a.575.575,0,0,0,.26-.062,1.962,1.962,0,0,0,.307-.205v-1.093q-.178.027-.362.068a.948.948,0,0,0-.475.253.68.68,0,0,0-.181.5.572.572,0,0,0,.126.407A.428.428,0,0,0,328.319,583.051Z" transform="translate(-300.594 -572.311)" fill="#ececec"/>
    <path id="Caminho_166" data-name="Caminho 166" d="M354.125,593.288a1.785,1.785,0,0,1-.885-.212,1.464,1.464,0,0,1-.588-.6,1.943,1.943,0,0,1-.208-.929,1.845,1.845,0,0,1,.222-.929,1.533,1.533,0,0,1,.6-.6,1.868,1.868,0,0,1,1.715,0,1.539,1.539,0,0,1,.6.594,1.842,1.842,0,0,1,.222.933,1.967,1.967,0,0,1-.208.933,1.445,1.445,0,0,1-.584.6A1.8,1.8,0,0,1,354.125,593.288Zm0-.191a.589.589,0,0,0,.4-.133.826.826,0,0,0,.222-.468,4.95,4.95,0,0,0,.068-.936,5.055,5.055,0,0,0-.068-.946.83.83,0,0,0-.222-.472.589.589,0,0,0-.4-.133.576.576,0,0,0-.4.133.86.86,0,0,0-.222.472,4.816,4.816,0,0,0-.072.946,4.716,4.716,0,0,0,.072.936.856.856,0,0,0,.222.468A.576.576,0,0,0,354.125,593.1Z" transform="translate(-322.566 -582.11)" fill="#ececec"/>
  </g>
</svg>
