<svg xmlns="http://www.w3.org/2000/svg" width="125.546" height="20.356" viewBox="0 0 125.546 20.356">
  <g id="Grupo_31" data-name="Grupo 31" transform="translate(0 -4)">
    <g id="Grupo_30" data-name="Grupo 30" transform="translate(0 4)">
      <g id="Grupo_28" data-name="Grupo 28" transform="translate(27.568)">
        <path id="Caminho_167" data-name="Caminho 167" d="M81.244,885.289h6.524A7.343,7.343,0,0,1,93,887.323a5.638,5.638,0,0,1,1.935,4.54v.521a6.47,6.47,0,0,1-1.265,3.808,4.551,4.551,0,0,1-2.394,1.848l4.651,7.244H91.018l-5.743-8.844v8.844H81.256Zm9.551,6.7A2.7,2.7,0,0,0,90,890.064a3.747,3.747,0,0,0-2.481-.794H85.263v5.52h1.55v.012h1.34A2.749,2.749,0,0,0,90.795,891.987Z" transform="translate(-81.244 -885.113)" fill="#515151"/>
        <path id="Caminho_168" data-name="Caminho 168" d="M241.21,884.834v4.006h-8.037v4.031H239.2v4.006h-6.028v4.031h8.037V904.9H229.154V884.834Z" transform="translate(-213 -884.708)" fill="#515151"/>
        <path id="Caminho_169" data-name="Caminho 169" d="M352.63,899.911a2.332,2.332,0,0,0,2.335-2.031c0-1.825-2.45-2.08-3.833-2.559-2.438-.831-4.591-2.832-4.591-5.555a6.1,6.1,0,0,1,12.141-.843l-3.99.843a2.028,2.028,0,0,0-4.057.012c0,1.8,2.28,2.28,3.669,2.693,2.523.728,4.748,2.65,4.748,5.434A6.352,6.352,0,0,1,352.66,904a6.426,6.426,0,0,1-6.343-5.246l3.99-.849a2.314,2.314,0,0,0,2.341,2.025Z" transform="translate(-317.367 -883.677)" fill="#515151"/>
        <path id="Caminho_170" data-name="Caminho 170" d="M488.614,897.382V885.289h4.044v12.106a8.087,8.087,0,0,1-16.174,0V885.289h4.044v12.093a4.044,4.044,0,0,0,8.087,0Z" transform="translate(-433.318 -885.113)" fill="#515151"/>
        <path id="Caminho_171" data-name="Caminho 171" d="M648.966,885.289v16H657v3.994H644.947V885.289Z" transform="translate(-583.383 -885.113)" fill="#515151"/>
        <path id="Caminho_172" data-name="Caminho 172" d="M741.882,885.289v3.982h-4.911v16.013h-4.031V889.271h-4.924v-3.982Z" transform="translate(-657.379 -885.113)" fill="#515151"/>
        <path id="Caminho_173" data-name="Caminho 173" d="M868.073,899.911a2.332,2.332,0,0,0,2.335-2.031c0-1.825-2.45-2.08-3.833-2.559-2.438-.831-4.591-2.832-4.591-5.555a6.1,6.1,0,0,1,12.141-.843l-3.99.843a2.029,2.029,0,0,0-4.057.012c0,1.8,2.28,2.28,3.669,2.693,2.523.728,4.749,2.65,4.749,5.434A6.352,6.352,0,0,1,868.1,904a6.425,6.425,0,0,1-6.343-5.246l3.99-.849a2.314,2.314,0,0,0,2.341,2.025Z" transform="translate(-776.517 -883.677)" fill="#515151"/>
      </g>
      <g id="Grupo_29" data-name="Grupo 29" transform="translate(0 0.092)">
        <path id="Caminho_174" data-name="Caminho 174" d="M-157.3,893.81a7.183,7.183,0,0,0-1.544-1.021,6.4,6.4,0,0,0,.834-2.777,5.268,5.268,0,0,0-1.594-3.823,5.412,5.412,0,0,0-3.985-1.669h-7.584v14.121h3.9v-10.2h3.684a1.727,1.727,0,0,1,1.693,1.731,1.894,1.894,0,0,1-1.768,1.843q-.971.075-1.507.1v3.673c1.208,0,2.242-.053,3.437.013a2.506,2.506,0,0,1,2.329,2.467,2.437,2.437,0,0,1-2.436,2.389h-3.33v3.935h3.437a5.978,5.978,0,0,0,4.433-1.868,6.094,6.094,0,0,0,1.831-4.458A6.121,6.121,0,0,0-157.3,893.81Z" transform="translate(171.177 -884.52)" fill="#515151"/>
        <path id="Caminho_175" data-name="Caminho 175" d="M-7.917,884.52h4.806l-2.034,7.749h3.453l-5.025,12.319.666-8.8h-3Z" transform="translate(26.758 -884.52)" fill="#515151"/>
      </g>
    </g>
  </g>
</svg>
