<svg xmlns="http://www.w3.org/2000/svg" width="257.921" height="68.254" viewBox="0 0 257.921 68.254">
  <g id="Logo_horttas" data-name="Logo horttas" transform="translate(-1466.659 -425.165)">
    <g id="Grupo_2" data-name="Grupo 2" transform="translate(1466.659 425.164)">
      <path id="Caminho_7" data-name="Caminho 7" d="M1506.921,456.409a3.9,3.9,0,0,0-3.032-2.788,6.834,6.834,0,0,0-5.11,1.261,3.67,3.67,0,0,0-1.381,4.058c.215.706.478,1.4.7,2.1a101.754,101.754,0,0,1,4.01,16.826,76.922,76.922,0,0,0-24.87,1.082,113.6,113.6,0,0,1,1.458-13.15q.383-2.275.855-4.534a23.2,23.2,0,0,0,.519-2.452c.224-2.269-1.945-3.57-3.969-3.557-1.975.013-4.465.855-5.388,2.757a18.642,18.642,0,0,0-1.021,3.78q-.487,2.066-.9,4.15a101.106,101.106,0,0,0-2.118,22,59.022,59.022,0,0,0,1.459,12.2,41.269,41.269,0,0,0,1.765,5.684c.695,1.757,1.29,3.2,3.165,3.916a7.017,7.017,0,0,0,6.484-.982,4.84,4.84,0,0,0,1.948-2.62c.268-1.2-.493-2.172-.962-3.217a43.353,43.353,0,0,1-3.275-15.1c.806-.3,1.55-.545,2.31-.774a51.153,51.153,0,0,1,6.062-1.434,52.878,52.878,0,0,1,17.069-.118,119.467,119.467,0,0,1-1.631,19.58c-.32,2.03-1.419,4.787.5,6.329,2.136,1.718,5.474,1.334,7.812.258a5.516,5.516,0,0,0,2.626-2.145,5.382,5.382,0,0,0,.46-2.163c.225-2.2.4-4.4.528-6.61a126.011,126.011,0,0,0-.17-20.8A94.517,94.517,0,0,0,1506.921,456.409Z" transform="translate(-1466.659 -444.33)" fill="#ececec"/>
      <path id="Caminho_8" data-name="Caminho 8" d="M1828.854,498.114a16.932,16.932,0,0,0-1.323-4.92,36.764,36.764,0,0,0-9.15-12.093,28.644,28.644,0,0,0-12.894-6.533c-3.971-.7-10.492.421-11.436,5.153-.467,2.345-.027,4.747.177,7.094a49.949,49.949,0,0,1,.157,5.886c-.12,3.831-.553,8.082-2.5,11.469-.357.62-.693,1.676-1.316,1.727a.279.279,0,0,1-.051,0,3.773,3.773,0,0,1-.516-.316c-3.248-1.759-4.362-7.79-5.3-9.653-.752-1.489-4.9-1.455-6.627-.135-.923.706-.875,1.622-1.083,2.7a8.1,8.1,0,0,1-1.952,3.994c-3.975,3.541-9.533,2.1-12.738-.3-3.457-2.6-4.867-6.172-4.966-10.508a11.437,11.437,0,0,1,6.1-10.4,8.256,8.256,0,0,1,9.646,1.564c.626.689,1.943,2.326,3.326,6.321.625,1.808,1.357,2.641,3.122,2.648,2.108.01,3.688-.277,4.54-2.391.8-1.989-.934-6.336-1.9-8.067-4.437-7.938-13.756-9.112-21.569-5.691a20.807,20.807,0,0,0-9.777,8.867,21.113,21.113,0,0,0-2.377,6.662,21.647,21.647,0,0,0-.327,4.409c.045,1.461.408,2.892.364,4.35a8.367,8.367,0,0,1-.635,3.116c-.287.652-.719,1.505-1.145,1.483a4.983,4.983,0,0,1-.6-.047,5.049,5.049,0,0,1-2.14-1.019c-3.184-2.461-4.339-7.15-5.141-10.881-.459-2.136-1.573-11.5-1.747-13.311a109.539,109.539,0,0,0,23.892-13.229c.98-.726,2.3-1.676,3.265-2.48.9-.751.47-1.977-.029-2.965-.791-1.568-2.473-1.342-3.933-.709a38.145,38.145,0,0,0-5.592,3.321q-3.1,2.03-6.363,3.8a101.336,101.336,0,0,1-12.3,5.625,38.468,38.468,0,0,0-2.051-6.862,40.761,40.761,0,0,0-2.985-6.763,3.3,3.3,0,0,0-3.032-1.8,6.2,6.2,0,0,0-4.536,2.114c-1.419,1.98.46,4.54,1.225,6.43a45.76,45.76,0,0,1,3,9.669,120.028,120.028,0,0,1-15.682,3.583,27.929,27.929,0,0,0-1.659-6.587,51.188,51.188,0,0,0-2.735-6.327,3.338,3.338,0,0,0-2.951-1.947,5.382,5.382,0,0,0-4.43,1.958c-1.2,1.817.554,4.192,1.254,5.916A39.994,39.994,0,0,1,1704,479.9c-2.163.156-4.256.119-6.425.135-1.285.009-3.25-.722-4.9-.475a4.673,4.673,0,0,0-3.207,7.047c1.171,2.055,3.9,1.652,5.9,1.634,3-.027,5.993-.239,8.977-.543.017,10.831-5.327,16.006-8.277,16.629-1.6.337-12.492,2.6-10.5-20.423.186-2.147.108-4.4-1.192-6.246-1.339-1.905-3.551-1.888-5.866-1.468a10.944,10.944,0,0,0-1.255.127c-2.772.436-5.264.77-7.613,1.023a10.2,10.2,0,0,0-1.245.184c-3.811.709-5.716,2.708-7.847,6.24a2.762,2.762,0,0,1-.833.912,16.276,16.276,0,0,0-15.538-10.644,23.638,23.638,0,0,0-18.809,9.757c-4.149,5.806-5.7,13.7-2.665,20.358a15.76,15.76,0,0,0,6.669,7.3A18.578,18.578,0,0,0,1642.406,513c9.255-2.05,16.834-10.032,18.166-19.028,1.577-.924,3.173-2.649,6.02-6.406,1.508-1.99,2.691-3.128,4.014-3.573s7.4-1.224,6.977.457c0,0,.006,0,.008-.005-2.468,21.636,7.639,28.769,15.475,29.086a15.6,15.6,0,0,0,9.514-3.116,19.333,19.333,0,0,0,4.365-4.534,16.884,16.884,0,0,0,3.636,4.911,11.179,11.179,0,0,0,8.378,2.71c6.086-.414,10.772-4.056,13.9-8.9,1.655,3.6,4.1,6.92,7.9,8.288,4.642,1.667,10.475.194,14.245-3.105a17.4,17.4,0,0,0,13.909,2.984,21.883,21.883,0,0,0,7.56-2.952,19.148,19.148,0,0,0,3.116-2.465c.214-.208.4-.44.605-.659.012.023.023.046.036.068a21.722,21.722,0,0,0,1.2,1.911,15.4,15.4,0,0,0,3.48,3.453c2.794,1.914,5.942,1.388,8.929.04,4.153-1.874,6.664-5.706,7.87-9.981a40.254,40.254,0,0,0,1.148-12.773c-.077-1.621-.223-3.237-.424-4.847a15.515,15.515,0,0,1-.135-1.871,3.718,3.718,0,0,1,.054-1.031c.179.056.331.1.358.115.376.149.74.327,1.1.511,3.9,2,8.412,4.852,11.338,8.094,2.619,2.9,7.132,6.937,6.651,11.076-.333,2.863-1.8,4.261-4.661,4.582-2.025.227-3.314-1.206-4.728-2.265-2.615-1.959-4.982-.99-6.668.295-1.936,1.475-2.66,4.117-1,6.027,1.385,1.595,4.2,2.543,6.184,2.886a16.761,16.761,0,0,0,9.221-1.224,15.21,15.21,0,0,0,6.813-5.294A12.424,12.424,0,0,0,1828.854,498.114Zm-183.917,7.538c-4.435.9-9.068-2.459-10.618-6.266a16.133,16.133,0,0,1,1.369-14.256,10.626,10.626,0,0,1,4.915-3.986,7.388,7.388,0,0,1,5.668.827,10.181,10.181,0,0,1,.96.626,9.962,9.962,0,0,0-.116,8.518,8.017,8.017,0,0,0,4.853,4.325c-.023.179-.041.359-.071.536C1651.217,499.7,1649.139,504.8,1644.937,505.651Zm80.02-4.535c-1.176,1.522-3.039,3.654-5.172,3.506a6.571,6.571,0,0,1-4.576-3.062,20.145,20.145,0,0,1-2.7-6.175c-.214-.756-.07-7.687-.035-8.8a122.522,122.522,0,0,0,15.988-3.936C1728.7,488.491,1728.5,496.3,1724.957,501.117Z" transform="translate(-1571.015 -446.826)" fill="#ececec"/>
      <path id="Caminho_9" data-name="Caminho 9" d="M1979.963,440.8c-.071-3.4.779-12.647,11.726-15.587a1.557,1.557,0,0,1,1.9,1.534c.524,5.853-2.115,16.632-12.286,15.519A1.5,1.5,0,0,1,1979.963,440.8Z" transform="translate(-1813.471 -425.164)" fill="#ececec"/>
    </g>
  </g>
</svg>
