<svg id="Logo_Coudelaria_SL" data-name="Logo Coudelaria SL" xmlns="http://www.w3.org/2000/svg" width="72.775" height="100.593" viewBox="0 0 72.775 100.593">
  <g id="Grupo_25" data-name="Grupo 25" transform="translate(10.301)">
    <path id="Caminho_142" data-name="Caminho 142" d="M265.637,513.021h0Z" transform="translate(-237.25 -442.472)" fill="#225627"/>
    <path id="Caminho_143" data-name="Caminho 143" d="M216.9,276.809l-2.124,8.309H197.437V272.61h-4.4v12.509H175.567l-2.124-8.309H168.9l3.249,12.711h46.04l2.971-12.711Z" transform="translate(-168.9 -272.61)" fill="#225627"/>
    <path id="Caminho_144" data-name="Caminho 144" d="M209.679,398.225c-1.074-.956-1.619-2.614-1.619-4.928h-4.4c0,3.623,1.041,6.387,3.094,8.215a8.9,8.9,0,0,0,5.886,2.151c.29,0,.513-.014.65-.026,2.394-.086,8.258-1.884,8.258-9.291,0-6.422-4.573-8.3-8.244-8.975-.625-.117-4.175-.948-4.144-4.624.028-3.279,2.073-3.7,2.961-3.724a3.522,3.522,0,0,1,2.788.963c.9,1.022.918,3.406.84,4.011l.891-.006,3.437.033a9.257,9.257,0,0,0-1.828-6.905,7.721,7.721,0,0,0-6.139-2.5h-.015c-2.927,0-7.286,2.151-7.336,8.088-.052,6.151,5.149,8.588,7.906,9.018l.136.017a6.468,6.468,0,0,1,2.268.781,4.02,4.02,0,0,1,2.078,3.821c0,2.031-.618,3.4-1.888,4.2a4.954,4.954,0,0,1-2.14.695h0l-.219.014A4.7,4.7,0,0,1,209.679,398.225Z" transform="translate(-193.458 -343.274)" fill="#225627"/>
    <path id="Caminho_145" data-name="Caminho 145" d="M274.244,404.937a9.365,9.365,0,0,0,6.043-2.054c2.156-1.812,3.249-4.606,3.249-8.3h-4.4c0,2.323-.558,3.978-1.658,4.917a4.456,4.456,0,0,1-2.182.95V374.312h-4.4V404.5l1.822.318A9.272,9.272,0,0,0,274.244,404.937Z" transform="translate(-240.963 -344.468)" fill="#225627"/>
    <g id="Grupo_24" data-name="Grupo 24" transform="translate(3.391 20.907)">
      <g id="Grupo_22" data-name="Grupo 22" transform="translate(18.591 50.749)">
        <path id="Caminho_146" data-name="Caminho 146" d="M243.809,516.8h0Z" transform="translate(-243.809 -516.796)" fill="#225627"/>
      </g>
      <g id="Grupo_23" data-name="Grupo 23">
        <path id="Caminho_147" data-name="Caminho 147" d="M203.226,395.718l-1.611-1.4c-2.9-2.861-7.151-2.75-11.264-2.643-.756.02-1.537.04-2.288.04-5.477,0-7.366-5.039-7.6-7.7l-.008-.193V343.855h45.479l-.008,40.155c-.234,2.664-2.123,7.7-7.6,7.7-.744,0-1.519-.02-2.269-.039-4.122-.105-8.381-.214-11.285,2.645l-.1.094Zm-10.551-8.488c3.473,0,7.29.366,10.521,2.679,4.013-2.865,8.928-2.739,12.973-2.636.755.019,1.468.038,2.157.038,2.614,0,3.126-2.975,3.206-3.614V348.257H184.857V383.7c.075.609.58,3.611,3.206,3.611.693,0,1.412-.019,2.174-.038C191.021,387.251,191.838,387.23,192.675,387.23Z" transform="translate(-180.455 -343.855)" fill="#225627"/>
      </g>
    </g>
  </g>
  <g id="Grupo_26" data-name="Grupo 26" transform="translate(0 76.546)">
    <path id="Caminho_148" data-name="Caminho 148" d="M138.843,544.821a5.547,5.547,0,0,1-2.568-.587,4.378,4.378,0,0,1-1.812-1.731,5.447,5.447,0,0,1-.668-2.788,5.566,5.566,0,0,1,.4-2.186,4.552,4.552,0,0,1,1.115-1.607,4.762,4.762,0,0,1,1.636-.983,5.8,5.8,0,0,1,1.966-.33,5.8,5.8,0,0,1,2.861.719l.059,1.922h-.4l-.617-1.159a3.908,3.908,0,0,0-.315-.528.947.947,0,0,0-.433-.337,1.984,1.984,0,0,0-.866-.176,2.938,2.938,0,0,0-1.577.44,3,3,0,0,0-1.137,1.46,7.387,7.387,0,0,0-.425,2.78,7.766,7.766,0,0,0,.4,2.773,2.894,2.894,0,0,0,1.093,1.46,3.15,3.15,0,0,0,2.2.374,3.3,3.3,0,0,0,.5-.161.992.992,0,0,0,.455-.345,2.5,2.5,0,0,0,.279-.521l.557-1.335h.4l-.059,2.112a5.65,5.65,0,0,1-1.394.543A6.848,6.848,0,0,1,138.843,544.821Z" transform="translate(-133.796 -534.272)" fill="#225627"/>
    <path id="Caminho_149" data-name="Caminho 149" d="M169.005,551.278a3.835,3.835,0,0,1-1.9-.455,3.144,3.144,0,0,1-1.262-1.291,4.173,4.173,0,0,1-.448-2,3.962,3.962,0,0,1,.477-2,3.291,3.291,0,0,1,1.291-1.284,4.013,4.013,0,0,1,3.683,0,3.306,3.306,0,0,1,1.291,1.276,3.955,3.955,0,0,1,.477,2,4.224,4.224,0,0,1-.447,2,3.1,3.1,0,0,1-1.255,1.291A3.872,3.872,0,0,1,169.005,551.278Zm0-.411a1.265,1.265,0,0,0,.858-.286,1.773,1.773,0,0,0,.477-1.005,10.63,10.63,0,0,0,.147-2.01,10.854,10.854,0,0,0-.147-2.032,1.782,1.782,0,0,0-.477-1.013,1.265,1.265,0,0,0-.858-.286,1.237,1.237,0,0,0-.851.286,1.846,1.846,0,0,0-.477,1.013,10.34,10.34,0,0,0-.154,2.032,10.126,10.126,0,0,0,.154,2.01,1.837,1.837,0,0,0,.477,1.005A1.237,1.237,0,0,0,169.005,550.867Z" transform="translate(-156.123 -540.773)" fill="#225627"/>
    <path id="Caminho_150" data-name="Caminho 150" d="M195.887,551.49a2.493,2.493,0,0,1-1.042-.213,1.582,1.582,0,0,1-.741-.7,2.582,2.582,0,0,1-.257-1.3l.044-3.683a.838.838,0,0,0-.1-.469.584.584,0,0,0-.367-.206l-.176-.059v-.264l2.509-.484.162.161-.073,2.069v3.331a.9.9,0,0,0,.271.726,1.025,1.025,0,0,0,.683.228,2.258,2.258,0,0,0,.77-.125,3.226,3.226,0,0,0,.711-.374l.044-4.519a.847.847,0,0,0-.1-.47.646.646,0,0,0-.36-.205l-.161-.044v-.264l2.45-.514.162.161-.044,2.069v3.844a1.234,1.234,0,0,0,.081.491.535.535,0,0,0,.359.271l.191.059v.279l-2.48.147-.132-.925a4.91,4.91,0,0,1-1.086.7A3.045,3.045,0,0,1,195.887,551.49Z" transform="translate(-175.801 -540.984)" fill="#225627"/>
    <path id="Caminho_151" data-name="Caminho 151" d="M225.619,543.965a3.114,3.114,0,0,1-1.555-.389,2.627,2.627,0,0,1-1.078-1.2,4.822,4.822,0,0,1-.389-2.076,4.521,4.521,0,0,1,.44-2.105,3.051,3.051,0,0,1,1.174-1.269,3.158,3.158,0,0,1,1.614-.425,4.062,4.062,0,0,1,1.012.124,2.7,2.7,0,0,1,.851.374v-1.907a.813.813,0,0,0-.1-.448.647.647,0,0,0-.389-.212l-.293-.059v-.279l2.553-.631.191.132-.059,2.069v7.057a.932.932,0,0,0,.1.462.567.567,0,0,0,.367.257l.161.044v.279l-2.436.161-.132-.616a3.106,3.106,0,0,1-.91.484A3.456,3.456,0,0,1,225.619,543.965Zm.807-.675a1.968,1.968,0,0,0,1.188-.411v-5.458a2.181,2.181,0,0,0-1.174-.338,1.477,1.477,0,0,0-1.232.756,4.426,4.426,0,0,0-.514,2.428,4.2,4.2,0,0,0,.484,2.348A1.474,1.474,0,0,0,226.426,543.291Z" transform="translate(-196.539 -533.46)" fill="#225627"/>
    <path id="Caminho_152" data-name="Caminho 152" d="M255.905,543.81a3.118,3.118,0,0,1,1.585.381,2.633,2.633,0,0,1,1.02,1.049,3.185,3.185,0,0,1,.359,1.533q0,.191-.015.36a1.582,1.582,0,0,1-.059.315h-4.416a3.449,3.449,0,0,0,.565,2.171,1.972,1.972,0,0,0,1.607.66,2.524,2.524,0,0,0,1.188-.242,2.937,2.937,0,0,0,.836-.682l.235.22a3.209,3.209,0,0,1-1.2,1.254,3.463,3.463,0,0,1-1.8.448,3.714,3.714,0,0,1-1.834-.44,3.1,3.1,0,0,1-1.24-1.269,4.129,4.129,0,0,1-.448-1.988,3.785,3.785,0,0,1,.521-2.039,3.571,3.571,0,0,1,1.35-1.284A3.609,3.609,0,0,1,255.905,543.81Zm-.073.426a1.18,1.18,0,0,0-.741.242,1.636,1.636,0,0,0-.5.851,6.851,6.851,0,0,0-.213,1.71h2.626a4.652,4.652,0,0,0-.117-2.142A1.044,1.044,0,0,0,255.832,544.236Z" transform="translate(-217.522 -540.773)" fill="#225627"/>
    <path id="Caminho_153" data-name="Caminho 153" d="M277.846,543.76v-.279l.22-.059a.69.69,0,0,0,.484-.734q0-.5.008-1.005t.007-1V535.1a.839.839,0,0,0-.1-.462.643.643,0,0,0-.4-.227l-.22-.059v-.279l2.568-.616.19.132-.058,2.069v7.028a1.013,1.013,0,0,0,.125.477.6.6,0,0,0,.389.257l.205.059v.279Z" transform="translate(-235.575 -533.46)" fill="#225627"/>
    <path id="Caminho_154" data-name="Caminho 154" d="M294.94,551.278a2.155,2.155,0,0,1-1.416-.477,1.675,1.675,0,0,1-.58-1.372,1.717,1.717,0,0,1,.683-1.3,4.577,4.577,0,0,1,2.15-.873q.249-.059.579-.11t.653-.11V546a2.7,2.7,0,0,0-.25-1.379.877.877,0,0,0-.792-.381h-.044a.7.7,0,0,0-.536.212,1.23,1.23,0,0,0-.257.7l-.044.191a1.343,1.343,0,0,1-.308.858.882.882,0,0,1-.66.271.854.854,0,0,1-.609-.227.777.777,0,0,1-.242-.594,1.377,1.377,0,0,1,.411-1.013,2.557,2.557,0,0,1,1.093-.616,5.089,5.089,0,0,1,1.474-.205,2.855,2.855,0,0,1,2,.631,2.669,2.669,0,0,1,.69,2.054v3.272q0,.631.6.631h.337l.147.161a2.021,2.021,0,0,1-.587.521,1.79,1.79,0,0,1-.88.183,1.561,1.561,0,0,1-1.005-.3,1.408,1.408,0,0,1-.492-.8,5.642,5.642,0,0,1-.924.807A2.085,2.085,0,0,1,294.94,551.278Zm.851-.939a1.232,1.232,0,0,0,.558-.132,4.186,4.186,0,0,0,.66-.44v-2.348q-.382.059-.778.147a2.037,2.037,0,0,0-1.02.543,1.461,1.461,0,0,0-.389,1.071,1.227,1.227,0,0,0,.271.873A.919.919,0,0,0,295.792,550.339Z" transform="translate(-246.243 -540.773)" fill="#225627"/>
    <path id="Caminho_155" data-name="Caminho 155" d="M319.3,551.073v-.279l.22-.073a.63.63,0,0,0,.4-.249.879.879,0,0,0,.11-.47v-4.3a1.049,1.049,0,0,0-.117-.492.565.565,0,0,0-.4-.227l-.22-.059v-.264l2.392-.851.176.161.132,1.292v.1a3.471,3.471,0,0,1,.558-.763,3.1,3.1,0,0,1,.734-.572,1.619,1.619,0,0,1,.792-.22,1.1,1.1,0,0,1,.836.293,1.043,1.043,0,0,1,.279.748.977.977,0,0,1-.279.756.96.96,0,0,1-.675.257,1.266,1.266,0,0,1-1.012-.528l-.029-.03a.509.509,0,0,0-.33-.2.418.418,0,0,0-.359.183,1.97,1.97,0,0,0-.271.345,2.675,2.675,0,0,0-.227.462v3.844a.84.84,0,0,0,.117.462.634.634,0,0,0,.4.257l.44.132v.279Z" transform="translate(-264.861 -540.773)" fill="#225627"/>
    <path id="Caminho_156" data-name="Caminho 156" d="M342.346,543.9v-.279l.22-.059a.647.647,0,0,0,.4-.264,1.038,1.038,0,0,0,.117-.47v-3.543q0-.389-.015-.8a.84.84,0,0,0-.11-.462.6.6,0,0,0-.4-.227l-.205-.044v-.264l2.568-.851.176.161-.044,2.084v3.962a.878.878,0,0,0,.11.469.673.673,0,0,0,.389.264l.161.044v.279Zm1.687-8.07a1.174,1.174,0,0,1-.822-.308,1.073,1.073,0,0,1,0-1.563,1.272,1.272,0,0,1,1.643,0,1.073,1.073,0,0,1,0,1.563A1.175,1.175,0,0,1,344.033,535.831Z" transform="translate(-281.147 -533.601)" fill="#225627"/>
    <path id="Caminho_157" data-name="Caminho 157" d="M359.69,551.278a2.156,2.156,0,0,1-1.416-.477,1.674,1.674,0,0,1-.58-1.372,1.716,1.716,0,0,1,.683-1.3,4.577,4.577,0,0,1,2.149-.873q.249-.059.58-.11t.653-.11V546a2.7,2.7,0,0,0-.249-1.379.878.878,0,0,0-.792-.381h-.044a.7.7,0,0,0-.535.212,1.23,1.23,0,0,0-.257.7l-.044.191a1.345,1.345,0,0,1-.308.858.883.883,0,0,1-.66.271.853.853,0,0,1-.609-.227.778.778,0,0,1-.242-.594,1.377,1.377,0,0,1,.411-1.013,2.558,2.558,0,0,1,1.093-.616A5.091,5.091,0,0,1,361,543.81a2.856,2.856,0,0,1,2,.631,2.669,2.669,0,0,1,.69,2.054v3.272q0,.631.6.631h.337l.147.161a2.014,2.014,0,0,1-.587.521,1.788,1.788,0,0,1-.88.183,1.56,1.56,0,0,1-1.005-.3,1.408,1.408,0,0,1-.492-.8,5.632,5.632,0,0,1-.924.807A2.084,2.084,0,0,1,359.69,551.278Zm.851-.939a1.23,1.23,0,0,0,.557-.132,4.16,4.16,0,0,0,.66-.44v-2.348q-.382.059-.777.147a2.038,2.038,0,0,0-1.02.543,1.461,1.461,0,0,0-.389,1.071,1.227,1.227,0,0,0,.272.873A.918.918,0,0,0,360.542,550.339Z" transform="translate(-291.992 -540.773)" fill="#225627"/>
    <path id="Caminho_158" data-name="Caminho 158" d="M137.269,590.821a7,7,0,0,1-1.636-.2,5.173,5.173,0,0,1-1.387-.521l.088-2.039h.426l.455,1.012a3.8,3.8,0,0,0,.425.7,1.383,1.383,0,0,0,.587.426,2.137,2.137,0,0,0,.477.139,3.173,3.173,0,0,0,.506.037,2.057,2.057,0,0,0,1.416-.462,1.754,1.754,0,0,0,.162-2.311,3.606,3.606,0,0,0-1.152-.763l-.6-.264a6.241,6.241,0,0,1-1.944-1.262,2.593,2.593,0,0,1-.712-1.907,2.509,2.509,0,0,1,.448-1.5,2.861,2.861,0,0,1,1.24-.961,4.689,4.689,0,0,1,1.849-.338,5.042,5.042,0,0,1,1.46.206,4.272,4.272,0,0,1,1.2.558l-.1,1.819h-.426l-.543-1.1a2.657,2.657,0,0,0-.447-.7.981.981,0,0,0-.521-.271q-.176-.029-.3-.044a2.958,2.958,0,0,0-.33-.015,1.918,1.918,0,0,0-1.24.418,1.4,1.4,0,0,0-.521,1.152,1.645,1.645,0,0,0,.4,1.144,3.4,3.4,0,0,0,1.144.778l.66.279a5.793,5.793,0,0,1,2.039,1.313,2.8,2.8,0,0,1-.359,3.874A4.229,4.229,0,0,1,137.269,590.821Z" transform="translate(-134.114 -566.773)" fill="#225627"/>
    <path id="Caminho_159" data-name="Caminho 159" d="M163.555,597.278a3.836,3.836,0,0,1-1.9-.455,3.145,3.145,0,0,1-1.262-1.291,4.173,4.173,0,0,1-.448-2,3.962,3.962,0,0,1,.477-2,3.291,3.291,0,0,1,1.291-1.284,4.012,4.012,0,0,1,3.683,0,3.3,3.3,0,0,1,1.291,1.276,3.955,3.955,0,0,1,.477,2,4.22,4.22,0,0,1-.448,2,3.1,3.1,0,0,1-1.254,1.291A3.873,3.873,0,0,1,163.555,597.278Zm0-.411a1.265,1.265,0,0,0,.858-.286,1.773,1.773,0,0,0,.477-1.005,10.629,10.629,0,0,0,.147-2.01,10.854,10.854,0,0,0-.147-2.032,1.782,1.782,0,0,0-.477-1.013,1.265,1.265,0,0,0-.858-.286,1.237,1.237,0,0,0-.851.286,1.846,1.846,0,0,0-.477,1.013,10.342,10.342,0,0,0-.154,2.032,10.128,10.128,0,0,0,.154,2.01,1.837,1.837,0,0,0,.477,1.005A1.237,1.237,0,0,0,163.555,596.867Z" transform="translate(-152.272 -573.274)" fill="#225627"/>
    <path id="Caminho_160" data-name="Caminho 160" d="M189.187,597.49a2.492,2.492,0,0,1-1.042-.213,1.582,1.582,0,0,1-.741-.7,2.579,2.579,0,0,1-.257-1.3l.044-3.683a.836.836,0,0,0-.1-.469.582.582,0,0,0-.367-.206l-.176-.059v-.264l2.509-.484.161.161-.073,2.069v3.331a.9.9,0,0,0,.271.726,1.024,1.024,0,0,0,.682.228,2.256,2.256,0,0,0,.77-.125,3.222,3.222,0,0,0,.712-.374l.044-4.519a.844.844,0,0,0-.1-.47.645.645,0,0,0-.359-.205l-.161-.044v-.264l2.45-.514.161.161-.044,2.069v3.844a1.239,1.239,0,0,0,.081.491.536.536,0,0,0,.359.271l.191.059v.279l-2.48.147-.132-.925a4.908,4.908,0,0,1-1.086.7A3.045,3.045,0,0,1,189.187,597.49Z" transform="translate(-171.067 -573.485)" fill="#225627"/>
    <path id="Caminho_161" data-name="Caminho 161" d="M214.847,597.6v-.323l3.991-6.339H216.8a.8.8,0,0,0-.58.206,2.106,2.106,0,0,0-.389.543l-.5.969-.381-.03.1-2.068h5.811v.294l-3.9,6.353h2.128a.888.888,0,0,0,.653-.213,2.1,2.1,0,0,0,.389-.579l.514-1.071h.381l-.132,2.26Z" transform="translate(-191.063 -573.804)" fill="#225627"/>
    <path id="Caminho_162" data-name="Caminho 162" d="M240.391,597.278a2.155,2.155,0,0,1-1.416-.477,1.675,1.675,0,0,1-.58-1.372,1.716,1.716,0,0,1,.682-1.3,4.578,4.578,0,0,1,2.15-.873q.249-.059.58-.11t.653-.11V592a2.7,2.7,0,0,0-.249-1.379.878.878,0,0,0-.793-.381h-.044a.7.7,0,0,0-.536.212,1.234,1.234,0,0,0-.257.7l-.044.191a1.345,1.345,0,0,1-.308.858.883.883,0,0,1-.66.271.855.855,0,0,1-.609-.227.778.778,0,0,1-.242-.594,1.376,1.376,0,0,1,.411-1.013,2.554,2.554,0,0,1,1.093-.616,5.088,5.088,0,0,1,1.475-.205,2.855,2.855,0,0,1,2,.631,2.669,2.669,0,0,1,.69,2.054v3.272q0,.631.6.631h.337l.147.161a2.016,2.016,0,0,1-.587.521,1.79,1.79,0,0,1-.88.183,1.561,1.561,0,0,1-1.005-.3,1.406,1.406,0,0,1-.491-.8,5.654,5.654,0,0,1-.924.807A2.085,2.085,0,0,1,240.391,597.278Zm.851-.939a1.231,1.231,0,0,0,.558-.132,4.187,4.187,0,0,0,.66-.44v-2.348q-.382.059-.778.147a2.037,2.037,0,0,0-1.02.543,1.461,1.461,0,0,0-.389,1.071,1.229,1.229,0,0,0,.271.873A.919.919,0,0,0,241.242,596.339Z" transform="translate(-207.701 -573.274)" fill="#225627"/>
    <path id="Caminho_163" data-name="Caminho 163" d="M274.745,591.208V590.9l.293-.088a.652.652,0,0,0,.4-.272,1.048,1.048,0,0,0,.088-.477v-7.424a1.01,1.01,0,0,0-.088-.462.646.646,0,0,0-.381-.271l-.308-.088v-.308h3.639v.308l-.279.088a.661.661,0,0,0-.374.279,1.023,1.023,0,0,0-.1.484v8.1h2.157a1.017,1.017,0,0,0,.748-.249,2.533,2.533,0,0,0,.47-.719l.543-1.218h.411l-.147,2.627Z" transform="translate(-233.384 -567.41)" fill="#225627"/>
    <path id="Caminho_164" data-name="Caminho 164" d="M305.454,589.81a3.119,3.119,0,0,1,1.585.381,2.636,2.636,0,0,1,1.02,1.049,3.186,3.186,0,0,1,.359,1.533q0,.191-.015.36a1.537,1.537,0,0,1-.059.315h-4.416a3.452,3.452,0,0,0,.565,2.171,1.972,1.972,0,0,0,1.607.66,2.525,2.525,0,0,0,1.188-.242,2.936,2.936,0,0,0,.836-.682l.235.22a3.212,3.212,0,0,1-1.2,1.254,3.465,3.465,0,0,1-1.8.448,3.714,3.714,0,0,1-1.834-.44,3.1,3.1,0,0,1-1.24-1.269,4.133,4.133,0,0,1-.447-1.988,3.785,3.785,0,0,1,.521-2.039,3.638,3.638,0,0,1,3.089-1.731Zm-.073.425a1.181,1.181,0,0,0-.741.242,1.636,1.636,0,0,0-.5.851,6.833,6.833,0,0,0-.213,1.71h2.627a4.654,4.654,0,0,0-.118-2.142A1.044,1.044,0,0,0,305.381,590.235Z" transform="translate(-252.531 -573.274)" fill="#225627"/>
    <path id="Caminho_165" data-name="Caminho 165" d="M328.989,589.259a2.155,2.155,0,0,1-1.416-.477,1.674,1.674,0,0,1-.58-1.372,1.717,1.717,0,0,1,.682-1.3,4.58,4.58,0,0,1,2.15-.873q.249-.059.579-.11t.653-.11v-1.042a2.7,2.7,0,0,0-.25-1.379.877.877,0,0,0-.792-.382h-.044a.7.7,0,0,0-.536.213,1.234,1.234,0,0,0-.257.7l-.044.191a1.345,1.345,0,0,1-.308.858.882.882,0,0,1-.66.271.854.854,0,0,1-.609-.227.777.777,0,0,1-.242-.594,1.377,1.377,0,0,1,.411-1.013,2.557,2.557,0,0,1,1.093-.616,5.086,5.086,0,0,1,1.474-.205,2.855,2.855,0,0,1,2,.631,2.67,2.67,0,0,1,.69,2.054v3.272q0,.631.6.631h.338l.147.161a2.021,2.021,0,0,1-.587.521,1.791,1.791,0,0,1-.88.183,1.561,1.561,0,0,1-1.005-.3,1.406,1.406,0,0,1-.492-.8,5.636,5.636,0,0,1-.924.807A2.084,2.084,0,0,1,328.989,589.259Zm-1.2-8.8a3.108,3.108,0,0,1,.506-1.467,1.182,1.182,0,0,1,.99-.528,1.3,1.3,0,0,1,.624.132,2.594,2.594,0,0,1,.448.308l.47.411a.762.762,0,0,0,.514.206.865.865,0,0,0,.646-.271,1.964,1.964,0,0,0,.426-.727l.308.118a3.158,3.158,0,0,1-.5,1.467,1.152,1.152,0,0,1-.968.528,1.441,1.441,0,0,1-.638-.132,2.213,2.213,0,0,1-.477-.308q-.22-.2-.448-.4a.77.77,0,0,0-.521-.2.884.884,0,0,0-.638.264,1.843,1.843,0,0,0-.433.719Zm2.054,7.864a1.234,1.234,0,0,0,.558-.132,4.222,4.222,0,0,0,.66-.44V585.4q-.382.059-.778.147a2.037,2.037,0,0,0-1.019.543,1.461,1.461,0,0,0-.389,1.071,1.228,1.228,0,0,0,.271.873A.919.919,0,0,0,329.84,588.32Z" transform="translate(-270.3 -565.255)" fill="#225627"/>
    <path id="Caminho_166" data-name="Caminho 166" d="M356.053,597.278a3.834,3.834,0,0,1-1.9-.455,3.144,3.144,0,0,1-1.262-1.291,4.173,4.173,0,0,1-.448-2,3.961,3.961,0,0,1,.477-2,3.291,3.291,0,0,1,1.291-1.284,4.013,4.013,0,0,1,3.683,0,3.306,3.306,0,0,1,1.291,1.276,3.955,3.955,0,0,1,.477,2,4.224,4.224,0,0,1-.447,2,3.1,3.1,0,0,1-1.255,1.291A3.873,3.873,0,0,1,356.053,597.278Zm0-.411a1.265,1.265,0,0,0,.858-.286,1.773,1.773,0,0,0,.477-1.005,10.629,10.629,0,0,0,.147-2.01,10.855,10.855,0,0,0-.147-2.032,1.782,1.782,0,0,0-.477-1.013,1.265,1.265,0,0,0-.858-.286,1.237,1.237,0,0,0-.851.286,1.846,1.846,0,0,0-.477,1.013,10.342,10.342,0,0,0-.154,2.032,10.128,10.128,0,0,0,.154,2.01,1.837,1.837,0,0,0,.477,1.005A1.237,1.237,0,0,0,356.053,596.867Z" transform="translate(-288.282 -573.274)" fill="#225627"/>
  </g>
</svg>
